<svg width="335" height="106" viewBox="0 0 335 106" fill="none" xmlns="http://www.w3.org/2000/svg">
<mask id="mask0_2239_636" style="mask-type:luminance" maskUnits="userSpaceOnUse" x="0" y="0" width="335" height="106">
<path d="M335 0H0V106H335V0Z" fill="white"/>
</mask>
<g mask="url(#mask0_2239_636)">
<path d="M109.386 32.1562V45.1037C111.283 42.8574 114.135 41.4342 117.678 41.4342C124.323 41.4342 129.888 47.0011 129.846 54.1864C129.805 61.3717 124.268 66.8409 117.637 66.8409C114.093 66.8409 111.283 65.3759 109.4 63.032V66.3526H103.102V32.1562H109.4H109.386ZM116.557 61.7903C120.682 61.7903 123.728 58.1766 123.728 54.1725C123.728 50.1683 120.669 46.4988 116.557 46.4988C112.446 46.4988 109.428 50.1125 109.428 54.1725C109.373 58.2324 112.432 61.7903 116.557 61.7903Z" fill="#702963"/>
<path d="M138.793 41.9258L145.812 56.394L151.64 41.9258H160.125L133.173 96.7014L143.569 66.3L130.723 41.9258H138.779H138.793Z" fill="#702963"/>
<path d="M162.934 66.3419V61.2633L176.597 47.0043H162.934V41.9258H184.737V47.0043L171.073 61.2633H184.737V66.3419H162.934Z" fill="#702963"/>
<path d="M186.09 54.174C186.09 46.9887 191.613 41.4219 198.257 41.4219C201.803 41.4219 204.654 42.8451 206.55 45.0913V41.9102H212.848V66.3263H206.55V63.0475C204.611 65.3496 201.803 66.8146 198.354 66.8146C191.71 66.8146 186.09 61.3454 186.09 54.1601V54.174ZM192.25 54.174C192.25 58.234 195.253 61.7919 199.379 61.7919C203.504 61.7919 206.55 58.1782 206.55 54.174C206.55 50.1698 203.491 46.5004 199.379 46.5004C195.268 46.5004 192.25 50.1141 192.25 54.174Z" fill="#702963"/>
<path d="M218.559 66.3406V41.9247H224.857V45.0499C226.56 42.957 229.079 41.3945 232.664 41.3945C239.308 41.3945 243.516 45.6916 243.516 53.2119V66.3546H237.218V53.6584C237.218 49.5006 235.031 46.8217 231.348 46.8217C227.321 46.8217 224.857 50.0447 224.857 54.007V66.3685H218.559V66.3406Z" fill="#702963"/>
<path d="M246.285 47.002V41.9235H249.773V35.8125H256.073V41.9235H261.984V47.002H256.073V57.9963C256.073 60.6888 256.75 61.861 258.84 61.861C259.713 61.861 260.779 61.6655 261.844 61.3726L263.063 65.9628C261.319 66.6464 259.283 66.8419 257.636 66.8419C251.725 66.8419 249.788 63.4235 249.788 58.052V47.016H246.298L246.285 47.002Z" fill="#702963"/>
<path d="M267.25 35.1301C267.25 33.3722 268.897 31.9492 271.028 31.9492C273.008 31.9492 274.767 33.4141 274.767 35.1301C274.767 36.8462 273.064 38.2973 271.028 38.2973C268.897 38.2555 267.25 36.8741 267.25 35.1301ZM267.872 66.3408V41.9249H274.171V66.3408H267.872Z" fill="#702963"/>
<path d="M280.629 66.3406V41.9247H286.927V45.0499C288.63 42.957 291.15 41.3945 294.736 41.3945C301.38 41.3945 305.588 45.6916 305.588 53.2119V66.3546H299.29V53.6584C299.29 49.5006 297.102 46.8217 293.42 46.8217C289.391 46.8217 286.927 50.0447 286.927 54.007V66.3685H280.629V66.3406Z" fill="#702963"/>
<path d="M322.489 41.3811C330.823 41.3811 335.334 47.3945 334.99 55.2495H315.995C316.384 59.2537 319.291 61.9883 322.932 61.9883C325.783 61.9883 328.165 60.8163 329.715 58.3748L333.743 61.0116C331.846 64.2764 327.97 66.8715 322.502 66.8715C315.04 66.8715 309.656 61.2489 309.656 54.1194C309.656 46.9898 314.64 41.3672 322.502 41.3672L322.489 41.3811ZM329.133 51.3429C328.98 48.3572 326.323 46.0691 322.932 46.0691C319.541 46.0691 317.021 48.0223 316.245 51.3429H329.133Z" fill="#702963"/>
<path d="M36.1758 29.9598L52.4276 9.29688L40.2872 39.224L36.1758 29.9598Z" fill="#EDE1E8"/>
<path d="M51.0096 29.3599L52.4216 9.29688L40.2812 39.224L51.0096 29.3599Z" fill="#A07A9C"/>
<path d="M56.6577 38.6234L51.0096 29.3594L40.2812 39.2233L56.6577 38.6234Z" fill="#CCB5C8"/>
<path d="M50.4144 43.3688L40.2812 39.2249L56.6577 38.625L50.4144 43.3688Z" fill="#926A90"/>
<path d="M51.164 27.2266L60.674 33.2818L66.6821 43.3691L56.6596 38.6255L51.0117 29.3613L51.164 27.2266Z" fill="#926A90"/>
<path d="M60.9135 27.2266L59.2938 32.4029L51.168 27.2266H60.9135Z" fill="#7A4477"/>
<path d="M51.5556 21.7695L54.8364 23.695L60.9135 27.2248H51.168L51.5556 21.7695Z" fill="#AE8DAA"/>
<path d="M59.732 13.8008L51.5508 21.7674L54.8315 23.6927L59.732 13.8008Z" fill="#EDE1E8"/>
<path d="M57.6659 25.3391L59.7286 13.8008L54.8281 23.6927L57.6659 25.3391Z" fill="#A07A9C"/>
<path d="M60.6695 33.2818L60.9047 27.2266L59.2852 32.4029L60.6695 33.2818Z" fill="#CCB5C8"/>
<path d="M66.6826 43.3688L60.91 44.9173L56.6602 38.625L66.6826 43.3688Z" fill="#865785"/>
<path d="M81.1587 60.7095L60.9062 44.9159L66.6787 43.3672L81.1587 60.7095Z" fill="#926A90"/>
<path d="M50.418 43.3688L53.256 45.5172L60.9111 44.9173L56.6613 38.625L50.418 43.3688Z" fill="#7A4477"/>
<path d="M81.1616 60.7116L67.263 64.395L53.2539 45.5179L60.909 44.918L81.1616 60.7116Z" fill="#CCB5C8"/>
<path d="M65.6172 69.738L67.2645 64.3945L75.3904 67.0592L65.6172 69.738Z" fill="#CCB5C8"/>
<path d="M81.1603 60.7109L75.3877 67.059L67.2617 64.3942L81.1603 60.7109Z" fill="#DECBD7"/>
<path d="M78.9345 73.17L83.6411 68.3147L81.1632 60.7109L75.3906 67.059L78.9345 73.17Z" fill="#865785"/>
<path d="M65.6172 69.7394L68.3165 69L72.8018 74.846V77.0923L65.6172 69.7394Z" fill="#7A4477"/>
<path d="M83.6363 68.3125L80.217 76.5022L78.9297 73.1677L83.6363 68.3125Z" fill="#7A4477"/>
<path d="M68.3164 68.998L75.3903 67.0586L78.934 73.1696L72.8017 74.8438L68.3164 68.998Z" fill="#926A90"/>
<path d="M80.2207 76.5025L78.9333 73.168L72.8008 74.8422V77.0885L80.2207 76.5025Z" fill="#865785"/>
<path d="M50.4136 43.3672L42.2461 49.8968L65.6133 69.7365L67.2605 64.3929L53.2514 45.5158L50.4136 43.3672Z" fill="#926A90"/>
<path d="M40.2812 39.2227V49.5471L42.247 49.8959L50.4144 43.3663L40.2812 39.2227Z" fill="#DECBD7"/>
<path d="M65.6133 69.7383L43.1182 62.6088L42.2461 49.8984L65.6133 69.7383Z" fill="#865785"/>
<path d="M40.2812 49.5469L43.1191 62.6061L42.247 49.8957L40.2812 49.5469Z" fill="#CCB5C8"/>
<path d="M36.1713 29.9609L35.1055 38.0253L40.2827 39.2252L36.1713 29.9609Z" fill="#CCB5C8"/>
<path d="M38.6771 26.7636L19.7812 27.6985L24.0866 23.9453L38.6771 26.7636Z" fill="#DECBD7"/>
<path d="M40.2825 49.5469L43.1203 62.6061L44.8783 83.0317L38.2891 87.7755L40.2825 49.5469Z" fill="#7A4477"/>
<path d="M40.2823 39.2227L26.1484 89.0871L38.2888 87.7757L40.2823 49.5471V39.2227Z" fill="#865785"/>
<path d="M40.2797 39.2227L18.1445 81.1345L26.1458 89.0871L40.2797 39.2227Z" fill="#AE8DAA"/>
<path d="M35.1088 38.0234L11.3125 80.6607L18.151 81.1351L40.2861 39.2233L35.1088 38.0234Z" fill="#865785"/>
<path d="M35.1076 38.0234L6.83984 74.2429L11.3112 80.6607L35.1076 38.0234Z" fill="#DECBD7"/>
<path d="M0 69.7382L6.83849 74.2447L35.1061 38.0253L35.3276 36.3789L0 69.7382Z" fill="#865785"/>
<path d="M4.36058 57.5014L0 69.7373L35.3276 36.378L35.6045 34.2852L4.36058 57.5014Z" fill="#DECBD7"/>
<path d="M35.7738 32.9453L1.78906 53.1617L4.36388 57.5009L35.6078 34.2846L35.7738 32.9453Z" fill="#865785"/>
<path d="M36.0203 31.0742L5.66249 45.5146L4.52734 51.5419L35.7713 32.9439L36.0203 31.0742Z" fill="#DECBD7"/>
<path d="M1.78906 53.1612L5.66513 45.5156L4.53 51.5427L1.78906 53.1612Z" fill="#DECBD7"/>
<path d="M36.1713 29.9609L9.06641 38.8763L9.31559 43.7735L36.019 31.0771L36.1713 29.9609Z" fill="#865785"/>
<path d="M36.7802 29.1797L12.5549 33.2676L9.06641 38.8763L36.1713 29.9609L36.7802 29.1797Z" fill="#DECBD7"/>
<path d="M38.68 26.7656L19.7843 27.7003L17.8047 32.3743L36.7835 29.1793L38.68 26.7656Z" fill="#926A90"/>
</g>
</svg>
