<svg width="339" height="70" viewBox="0 0 339 70" fill="none" xmlns="http://www.w3.org/2000/svg">
<path fill-rule="evenodd" clip-rule="evenodd" d="M0 4.94141H12.5113C12.5113 4.94141 12.6156 34.9685 42.5385 34.9685C17.5161 34.9685 17.5158 4.94141 17.5158 4.94141H30.0272C30.0272 4.94141 27.5249 32.4663 47.543 32.4662C32.3406 32.4663 35.0317 4.94141 35.0317 4.94141H47.543C47.543 4.94141 37.5339 34.9685 62.5566 34.9686H75.0679V39.973H62.5566C37.5339 39.973 47.543 70.0003 47.543 70.0003H35.0317C35.0317 70.0003 32.3405 42.4753 47.543 42.4753C27.5249 42.4754 30.0274 70.0003 30.0274 70.0003H17.5161C17.5161 70.0003 17.5158 39.973 42.5385 39.973C12.6156 39.973 12.5115 70.0003 12.5115 70.0003H0.000211817C0.000211817 70.0003 0 37.4708 35.0317 37.4708C0 37.4708 0 4.94141 0 4.94141Z" fill="white"/>
<path d="M108.18 54.7906C103.481 54.7906 99.7475 53.3192 96.9804 50.3765C94.2573 47.3898 92.8957 43.4808 92.8957 38.6494C92.8957 33.818 94.2573 29.931 96.9804 26.9882C99.7475 24.0016 103.481 22.5082 108.18 22.5082C112.397 22.5082 115.779 23.5843 118.326 25.7365C120.918 27.8447 122.389 30.6776 122.74 34.2353H115.559C114.769 30.6776 112.309 28.8988 108.18 28.8988C105.633 28.8988 103.635 29.7553 102.185 31.4682C100.78 33.1372 100.077 35.531 100.077 38.6494C100.077 41.7678 100.78 44.1835 102.185 45.8965C103.635 47.5655 105.633 48.4 108.18 48.4C112.265 48.4 114.725 46.731 115.559 43.3929H122.74C122.389 46.8627 120.918 49.6298 118.326 51.6941C115.779 53.7584 112.397 54.7906 108.18 54.7906ZM140.476 54.7906C135.689 54.7906 131.977 53.2753 129.342 50.2447C126.707 47.2141 125.389 43.349 125.389 38.6494C125.389 33.9937 126.773 30.1506 129.54 27.12C132.307 24.0455 136.018 22.5082 140.674 22.5082C142.738 22.5082 144.627 22.9474 146.34 23.8259C148.053 24.7043 149.37 25.9121 150.293 27.4494V23.2988H157.474V54H150.293V49.8494C149.414 51.3427 148.031 52.5506 146.142 53.4729C144.297 54.3514 142.409 54.7906 140.476 54.7906ZM141.53 48.4C144.473 48.4 146.713 47.4776 148.25 45.6329C149.831 43.7882 150.622 41.4604 150.622 38.6494C150.622 35.8384 149.831 33.5106 148.25 31.6659C146.713 29.8212 144.473 28.8988 141.53 28.8988C138.763 28.8988 136.567 29.8212 134.942 31.6659C133.361 33.4667 132.57 35.7945 132.57 38.6494C132.57 41.5043 133.361 43.8541 134.942 45.6988C136.567 47.4996 138.763 48.4 141.53 48.4ZM177.95 47.9388C179.399 47.9388 180.607 47.851 181.573 47.6753V54C180.08 54.2635 178.301 54.3953 176.237 54.3953C175.051 54.3953 174.019 54.3075 173.14 54.1318C172.262 53.9561 171.23 53.5608 170.044 52.9459C168.858 52.2871 167.936 51.1671 167.277 49.5859C166.618 48.0047 166.289 46.0063 166.289 43.5906V29.2941H161.084V23.2988H166.289V14.0094H173.47V23.2988H180.519V29.2941H173.47V41.9435C173.47 44.4031 173.821 46.0282 174.524 46.8188C175.227 47.5655 176.369 47.9388 177.95 47.9388ZM198 54.7906C193.212 54.7906 189.501 53.2753 186.866 50.2447C184.23 47.2141 182.913 43.349 182.913 38.6494C182.913 33.9937 184.296 30.1506 187.063 27.12C189.83 24.0455 193.542 22.5082 198.197 22.5082C200.262 22.5082 202.15 22.9474 203.863 23.8259C205.576 24.7043 206.894 25.9121 207.816 27.4494V23.2988H214.997V54H207.816V49.8494C206.938 51.3427 205.554 52.5506 203.666 53.4729C201.821 54.3514 199.932 54.7906 198 54.7906ZM199.054 48.4C201.997 48.4 204.237 47.4776 205.774 45.6329C207.355 43.7882 208.146 41.4604 208.146 38.6494C208.146 35.8384 207.355 33.5106 205.774 31.6659C204.237 29.8212 201.997 28.8988 199.054 28.8988C196.287 28.8988 194.091 29.8212 192.466 31.6659C190.884 33.4667 190.094 35.7945 190.094 38.6494C190.094 41.5043 190.884 43.8541 192.466 45.6988C194.091 47.4996 196.287 48.4 199.054 48.4ZM221.572 54V7.88234H228.753V54H221.572ZM256.228 23.2988H263.409V54.1318C263.409 58.8314 262.069 62.4769 259.39 65.0682C256.799 67.44 253.329 68.6259 248.981 68.6259C244.457 68.6259 240.943 67.5718 238.44 65.4635C236.244 63.531 235.102 60.8737 235.014 57.4918H242.261C242.437 59.2486 243.008 60.5443 243.974 61.3788C244.984 62.2573 246.609 62.6965 248.849 62.6965C251.133 62.6965 252.934 61.9498 254.251 60.4565C255.569 59.0071 256.228 56.7231 256.228 53.6047V49.7176C254.251 53.0996 250.957 54.7906 246.346 54.7906C242.7 54.7906 239.889 53.6267 237.913 51.2988C235.98 48.9271 235.014 45.8306 235.014 42.0094V23.2988H242.195V40.4941C242.195 45.8086 244.413 48.4659 248.849 48.4659C251.265 48.4659 253.088 47.6094 254.317 45.8965C255.591 44.1835 256.228 41.9435 256.228 39.1765V23.2988ZM280.763 54.7906C276.898 54.7906 273.757 53.8024 271.342 51.8259C268.926 49.8494 267.718 47.4337 267.718 44.5788H274.899C274.899 45.8965 275.47 46.9725 276.612 47.8071C277.798 48.6416 279.314 49.0588 281.158 49.0588C282.52 49.0588 283.596 48.7294 284.386 48.0706C285.177 47.4118 285.572 46.5333 285.572 45.4353C285.572 43.6784 284.804 42.6023 283.266 42.2071L275.361 40.0329C270.924 38.8031 268.706 35.9702 268.706 31.5341C268.706 28.9867 269.804 26.8565 272.001 25.1435C274.197 23.3867 277.03 22.5082 280.499 22.5082C284.408 22.5082 287.395 23.3867 289.459 25.1435C291.568 26.9004 292.622 29.2063 292.622 32.0612H285.572C285.572 30.7874 285.089 29.7992 284.123 29.0965C283.201 28.3498 281.905 27.9765 280.236 27.9765C278.962 27.9765 277.908 28.2839 277.074 28.8988C276.239 29.4698 275.822 30.2165 275.822 31.1388C275.822 32.8078 276.7 33.9059 278.457 34.4329L285.77 36.5412C287.878 37.1561 289.591 38.2102 290.909 39.7035C292.226 41.1529 292.885 42.8439 292.885 44.7765C292.885 47.7631 291.809 50.1788 289.657 52.0235C287.549 53.8682 284.584 54.7906 280.763 54.7906ZM304.944 17.3694C303.934 18.3796 302.66 18.8847 301.123 18.8847C299.585 18.8847 298.312 18.3796 297.301 17.3694C296.291 16.3153 295.786 15.0416 295.786 13.5482C295.786 12.0549 296.291 10.8031 297.301 9.79293C298.312 8.73881 299.585 8.21175 301.123 8.21175C302.66 8.21175 303.934 8.73881 304.944 9.79293C305.954 10.8031 306.459 12.0549 306.459 13.5482C306.459 15.0416 305.954 16.3153 304.944 17.3694ZM297.499 54V23.2988H304.68V54H297.499ZM322.009 54.7906C318.144 54.7906 315.003 53.8024 312.588 51.8259C310.172 49.8494 308.964 47.4337 308.964 44.5788H316.145C316.145 45.8965 316.716 46.9725 317.858 47.8071C319.044 48.6416 320.559 49.0588 322.404 49.0588C323.766 49.0588 324.842 48.7294 325.632 48.0706C326.423 47.4118 326.818 46.5333 326.818 45.4353C326.818 43.6784 326.05 42.6023 324.512 42.2071L316.607 40.0329C312.17 38.8031 309.952 35.9702 309.952 31.5341C309.952 28.9867 311.05 26.8565 313.247 25.1435C315.443 23.3867 318.276 22.5082 321.745 22.5082C325.654 22.5082 328.641 23.3867 330.705 25.1435C332.814 26.9004 333.868 29.2063 333.868 32.0612H326.818C326.818 30.7874 326.335 29.7992 325.369 29.0965C324.447 28.3498 323.151 27.9765 321.482 27.9765C320.208 27.9765 319.154 28.2839 318.319 28.8988C317.485 29.4698 317.068 30.2165 317.068 31.1388C317.068 32.8078 317.946 33.9059 319.703 34.4329L327.016 36.5412C329.124 37.1561 330.837 38.2102 332.155 39.7035C333.472 41.1529 334.131 42.8439 334.131 44.7765C334.131 47.7631 333.055 50.1788 330.903 52.0235C328.795 53.8682 325.83 54.7906 322.009 54.7906Z" fill="white"/>
</svg>
