<svg width="264" height="88" viewBox="0 0 264 88" fill="none" xmlns="http://www.w3.org/2000/svg">
<path d="M90.9001 23.9453C78.821 23.9453 69.0312 33.6821 69.0312 45.6937C69.0312 57.7053 78.821 67.4421 90.9001 67.4421C102.979 67.4421 112.769 57.7053 112.769 45.6937C112.769 33.6821 102.979 23.9453 90.9001 23.9453ZM103.047 45.5703C103.047 52.7913 97.6069 58.6457 90.9001 58.6457C84.1905 58.6457 78.7534 52.7913 78.7534 45.5703C78.7534 38.3521 84.1905 32.4977 90.9001 32.4977C97.6069 32.4977 103.047 38.3521 103.047 45.5703Z" fill="#EA4335"/>
<path d="M137.814 23.9453C125.738 23.9453 115.945 33.6821 115.945 45.6937C115.945 57.7053 125.738 67.4421 137.814 67.4421C149.893 67.4421 159.683 57.7053 159.683 45.6937C159.683 33.6821 149.893 23.9453 137.814 23.9453ZM149.961 45.5703C149.961 52.7913 144.524 58.6457 137.814 58.6457C131.107 58.6457 125.67 52.7913 125.67 45.5703C125.67 38.3521 131.107 32.4977 137.814 32.4977C144.524 32.4977 149.961 38.3521 149.961 45.5703Z" fill="#FABB05"/>
<path d="M210.633 65.977H219.429V2.44531H210.633V65.977Z" fill="#34A852"/>
<path fill-rule="evenodd" clip-rule="evenodd" d="M65.2363 35.9201C65.2393 35.7673 65.2422 35.3499 65.2422 35.9201H65.2363ZM65.2305 35.9201C65.2305 35.9936 65.2334 35.973 65.2363 35.9201H65.2305ZM33.5866 67.417C33.5131 67.42 33.5337 67.42 33.5866 67.4229V67.417ZM50.1006 16.1203C47.914 14.0689 45.3277 12.4142 42.4652 11.2798C39.7202 10.1953 36.7283 9.59868 33.5866 9.59868C26.9269 9.59868 20.9372 12.279 16.614 16.6199C12.2731 20.9784 9.59868 27.018 9.59868 33.7041C9.59868 40.3932 12.2761 46.4387 16.6169 50.8001C20.9402 55.1468 26.9298 57.8331 33.5866 57.8331C34.8474 57.8331 32.9077 57.8595 33.9569 57.8478C40.4961 57.7802 45.9596 55.7728 49.7215 52.0903C52.6575 49.2189 55.476 45.2484 56.2019 39.5821H33.7217V30.7857H65.1687L65.2216 35.4646C65.2246 35.7144 65.2275 35.8525 65.2305 35.9201H65.2216C65.2246 45.6745 61.9946 53.4716 56.4312 58.9146C50.8765 64.3517 43.1118 67.3142 34.0303 67.4082C33.7864 67.4112 33.6512 67.4141 33.5866 67.417V67.4229C33.7423 67.4288 34.1802 67.4317 33.5866 67.4317C24.2935 67.4317 15.9057 63.6552 9.83086 57.5509C3.74719 51.4379 0 43.003 0 33.7041C0 24.4023 3.74719 15.9762 9.82498 9.872C15.9028 3.7707 24.2935 0 33.5866 0C37.9627 0 42.1448 0.834667 45.989 2.35705C49.9625 3.9294 53.5774 6.24825 56.6604 9.14608" fill="#4285F4"/>
<path fill-rule="evenodd" clip-rule="evenodd" d="M234.329 51.9351C237.938 60.5375 250.658 60.6315 255.481 52.5964L262.743 57.4662C258.296 63.9819 251.816 67.0355 244.759 67.0737C238.476 67.0796 233.418 64.7255 229.641 60.9107C220.404 51.5883 222.382 37.2843 228.78 30.5041C234 24.973 242.052 22.1604 250.358 25.1758C255.754 27.136 260.133 31.8825 263.333 40.1322C253.658 44.0528 244.019 48.0351 234.329 51.9351ZM232.871 44.667L252.4 36.8023C248.953 32.3674 243.945 30.222 237.341 34.7245C234.805 36.8699 232.583 40.5319 232.871 44.667Z" fill="#EA4335"/>
<path d="M184.728 58.6467C178.021 58.6467 172.584 52.7923 172.584 45.5712C172.584 38.3531 178.021 32.4987 184.728 32.4987C189.807 32.4987 194.156 35.855 195.97 40.6191C196.117 41.0011 196.246 41.392 196.358 41.7917C196.413 41.9886 196.466 42.1885 196.51 42.3913C196.513 42.403 196.516 42.4148 196.519 42.4295C196.563 42.6176 196.602 42.8086 196.64 43.0026C196.646 43.0349 196.649 43.0672 196.657 43.0996C196.687 43.273 196.716 43.4493 196.74 43.6256C196.748 43.6844 196.754 43.7461 196.76 43.8049C196.781 43.9577 196.801 44.1106 196.813 44.2634C196.825 44.3662 196.828 44.4691 196.837 44.5749C196.845 44.6866 196.854 44.7983 196.86 44.9129C196.869 45.1304 196.875 45.3508 196.875 45.5712C196.875 45.7946 196.869 46.015 196.86 46.2325C196.854 46.3471 196.845 46.4588 196.837 46.5734C196.828 46.6763 196.825 46.7791 196.813 46.882C196.801 47.0378 196.781 47.1877 196.76 47.3405C196.754 47.3993 196.748 47.461 196.74 47.5198C196.716 47.6961 196.687 47.8724 196.657 48.0458C196.649 48.0782 196.646 48.1105 196.64 48.1428C196.602 48.3368 196.563 48.5278 196.519 48.7159C196.516 48.7277 196.513 48.7424 196.51 48.7541C196.466 48.954 196.413 49.1538 196.358 49.3507V49.3566C196.246 49.7534 196.117 50.1443 195.97 50.5263C194.156 55.2904 189.807 58.6467 184.728 58.6467ZM195.97 24.925V29.4422C192.707 26.0271 188.528 23.9492 184.243 23.9492C172.364 23.9492 163.227 33.6831 163.227 45.6947C163.227 57.7062 172.364 67.443 184.243 67.443C188.663 67.443 192.781 65.4445 195.97 62.15V67.0845C195.97 74.1233 190.015 78.3966 185.407 78.3966C178.906 78.3966 175.429 75.7398 173.099 70.5848L164.869 74.2938C166.83 78.6317 169.689 81.7147 173.04 83.7749C176.808 86.0938 181.116 86.9196 185.407 86.9196C190.106 86.9196 194.856 84.9358 198.388 81.797C202.056 78.5318 204.766 72.2777 204.766 66.5143V24.925" fill="#4285F4"/>
<path d="M211.105 87.2353H212.616V76.1172H211.105V87.2353Z" fill="#4294F6"/>
<path d="M216.355 78.9731L216.461 80.2046C216.737 79.7667 217.081 79.4257 217.495 79.1818C217.91 78.9408 218.383 78.8203 218.915 78.8203C219.802 78.8203 220.493 79.0819 220.984 79.605C221.472 80.1252 221.716 80.9305 221.716 82.0209V87.2346H220.211V82.0502C220.211 81.3214 220.067 80.8071 219.779 80.5014C219.491 80.1958 219.053 80.0429 218.462 80.0429C218.03 80.0429 217.648 80.1487 217.313 80.3545C216.981 80.5631 216.713 80.8482 216.514 81.2097V87.2346H215.012V78.9731" fill="#4294F6"/>
<mask id="mask0_2239_551" style="mask-type:luminance" maskUnits="userSpaceOnUse" x="222" y="75" width="9" height="13">
<path d="M222.703 75.2383H230.979V87.3968H222.703V75.2383Z" fill="white"/>
</mask>
<g mask="url(#mask0_2239_551)">
<path d="M224.907 83.4142C224.907 84.2489 225.078 84.919 225.418 85.4186C225.759 85.9212 226.288 86.171 227.008 86.171C227.455 86.171 227.831 86.0681 228.137 85.8653C228.443 85.6626 228.69 85.3775 228.886 85.0101V81.1542C228.69 80.8132 228.44 80.5429 228.134 80.3401C227.825 80.1402 227.455 80.0403 227.023 80.0403C226.3 80.0403 225.765 80.3371 225.421 80.9337C225.078 81.5274 224.907 82.3033 224.907 83.2555V83.4142ZM223.402 83.2555C223.402 81.9271 223.687 80.8544 224.255 80.0403C224.822 79.2262 225.615 78.8177 226.641 78.8177C227.123 78.8177 227.552 78.9088 227.928 79.0851C228.302 79.2644 228.622 79.523 228.886 79.864V75.3203H230.391V87.232H229.16L228.983 86.218C228.716 86.603 228.384 86.8969 227.993 87.0968C227.599 87.2937 227.144 87.3936 226.626 87.3936C225.615 87.3936 224.828 87.0292 224.258 86.2974C223.687 85.5656 223.402 84.6045 223.402 83.4142" fill="#4294F6"/>
</g>
<path d="M234.102 87.232H232.598V78.9705H234.102V87.232ZM234.102 76.8545H232.598V75.3203H234.102V76.8545Z" fill="#4294F6"/>
<mask id="mask1_2239_551" style="mask-type:luminance" maskUnits="userSpaceOnUse" x="235" y="78" width="9" height="10">
<path d="M235.496 78.2461H243.02V87.3951H235.496V78.2461Z" fill="white"/>
</mask>
<g mask="url(#mask1_2239_551)">
<path d="M238.835 86.1266C239.382 86.1266 239.873 85.9885 240.311 85.7093C240.748 85.4301 241.034 85.1097 241.166 84.7482V83.411H239.479C238.87 83.411 238.388 83.5638 238.024 83.8665C237.66 84.1722 237.477 84.5278 237.477 84.9422C237.477 85.3066 237.592 85.5946 237.821 85.8092C238.051 86.0208 238.388 86.1266 238.835 86.1266ZM241.333 87.2346C241.283 86.9877 241.242 86.7673 241.216 86.5763C241.186 86.3852 241.172 86.1913 241.166 85.9973C240.887 86.394 240.519 86.7291 240.07 86.9936C239.62 87.264 239.135 87.3962 238.615 87.3962C237.757 87.3962 237.098 87.1758 236.649 86.735C236.199 86.2971 235.973 85.6887 235.973 84.9157C235.973 84.1252 236.293 83.508 236.931 83.0642C237.571 82.6175 238.436 82.3941 239.532 82.3941H241.166V81.5771C241.166 81.0951 241.019 80.7101 240.722 80.4279C240.428 80.1458 240.011 80.0047 239.47 80.0047C238.985 80.0047 238.594 80.1282 238.292 80.375C237.989 80.6219 237.836 80.9187 237.836 81.2626H236.402L236.384 81.2185C236.355 80.619 236.64 80.0664 237.236 79.5698C237.836 79.0701 238.609 78.8203 239.555 78.8203C240.49 78.8203 241.245 79.0584 241.815 79.5345C242.385 80.0106 242.671 80.6954 242.671 81.5918V85.5711C242.671 85.865 242.685 86.1501 242.715 86.4264C242.747 86.7026 242.803 86.9701 242.885 87.2346" fill="#4294F6"/>
</g>
</svg>
