<svg width="296" height="47" viewBox="0 0 296 47" fill="none" xmlns="http://www.w3.org/2000/svg">
<path d="M0 34.3264H31.821L21.2141 24.0145H10.607V13.7026L0 3.39062V34.3264Z" fill="white"/>
<path d="M40.2458 33.4805L42.0782 33.2322C43.7076 33.0335 44.2672 32.7375 44.2672 32.3403V5.27021C44.2672 4.87295 43.9631 4.678 41.62 4.42972L40.2966 4.23111L40.1426 3.39062H57.0444L56.8904 4.23111L54.7522 4.47939C53.4286 4.57686 52.5631 4.87295 52.5631 5.36951V33.0353L54.3447 33.2837C59.4342 33.2837 62.5919 31.2054 66.0031 23.9795L66.5625 22.7915H68.1414L66.7165 34.3246H40.0938L40.2458 33.4805Z" fill="white"/>
<path d="M71.9895 33.4804L72.7029 33.4308C74.1803 33.3333 74.7397 33.1826 74.7397 32.5903V19.6246C74.7397 16.5551 74.3305 16.1615 72.6015 15.6632L71.582 15.4147L82.1178 12.0805V32.6345C82.1178 33.0813 82.4219 33.1789 84.5602 33.4254L85.0183 33.4749L85.1722 34.3154H71.8355L71.9876 33.4749V33.4804H71.9895ZM73.7711 5.12125C73.7711 2.99338 75.5001 0.964844 78.1472 0.964844C80.7942 0.964844 82.5777 2.99523 82.5777 5.12125C82.5777 7.24911 80.8994 9.32732 78.1472 9.32732C75.3968 9.32732 73.7711 7.24727 73.7711 5.12125Z" fill="white"/>
<path d="M88.6102 31.3479C88.6102 28.6756 91.3587 26.6948 94.3643 25.8544V25.8047C91.462 24.8153 89.4795 22.9339 89.4795 19.5205C89.4795 15.5626 93.5514 11.8477 99.559 11.8477C101.851 11.8477 104.294 12.392 105.872 13.284L113.305 12.4932L112.896 15.6602L107.806 14.9172L107.755 15.0661C108.874 16.0078 109.539 17.3926 109.539 18.9264C109.539 23.3311 105.364 26.4485 99.2042 26.4485C97.9313 26.4485 96.7617 26.3472 95.6916 26.1487C94.3682 26.4963 93.4539 27.4361 93.4539 28.3776C93.4539 29.5639 94.6234 30.1101 97.3212 30.1101C98.9001 30.1101 102.615 29.9612 104.549 29.9612C109.079 29.9612 112.237 32.4366 112.237 36.3945C112.237 41.6893 106.282 46.2429 97.8806 46.2429C91.263 46.2429 88.0039 44.6079 88.0039 41.2939C88.0039 38.6712 91.0076 37.336 94.0621 36.1958C91.0602 35.8464 88.6141 33.7202 88.6141 31.3442H88.6102V31.3479ZM107.45 39.8115C107.45 37.2864 105.717 36.4956 102.105 36.2473C100.986 36.0982 98.6429 36.1976 95.3349 36.3447C93.8575 36.9903 93.4519 38.2758 93.4519 40.0579C93.4519 42.7302 96.0991 44.7588 100.526 44.7588C104.652 44.7605 107.45 42.6328 107.45 39.8115ZM102.615 19.32C102.615 15.0643 101.446 12.9346 99.5084 12.9346C97.4207 12.9346 96.5553 14.6192 96.5553 19.2703C96.5553 23.5738 97.6234 25.4572 99.5084 25.4572C101.647 25.459 102.615 23.824 102.615 19.32Z" fill="white"/>
<path d="M116.021 33.4273C117.549 33.3298 118.056 33.1789 118.056 32.5868V7.94075C118.056 5.51678 117.752 5.06987 116.327 4.62482L114.902 4.08043L125.541 0.714844V16.1562H125.592C128.188 14.0778 131.243 11.8526 134.399 11.8526C136.077 11.8526 137.4 12.4447 138.624 13.6347C139.794 14.8228 140.303 17.0977 140.303 19.5254V32.5923C140.303 32.9381 140.558 33.1367 142.796 33.4328L143.355 33.4824L143.507 34.323H130.325L130.477 33.4824L131.342 33.4328C133.021 33.3353 132.972 32.9896 132.972 32.5923V20.9617C132.972 17.3001 131.393 16.3584 129.001 16.3584C127.524 16.3584 126.303 16.8532 125.438 17.3479V32.6401C125.438 33.087 125.693 33.2857 127.422 33.4309L128.237 33.4806L128.387 34.3211H115.15L116.016 33.4291L116.021 33.4273Z" fill="white"/>
<path d="M166.876 33.6757L166.723 27.3418L168.147 27.4429L169.522 30.2144C171.253 32.688 172.629 33.9773 175.275 33.9773C177.923 33.9773 179.296 32.5924 179.296 30.4627C179.296 28.1362 176.7 27.2443 173.851 26.1556C169.984 24.7211 166.824 23.1872 166.824 19.1282C166.824 14.7236 170.49 11.9023 175.985 11.9023C177.817 11.9023 179.905 12.2481 181.279 12.6932L183.77 11.9023L184.027 19.2772L182.704 19.3269L178.837 13.7856C178.022 13.3387 177.158 12.9948 175.934 12.9948C173.745 12.9948 172.372 14.2325 172.372 16.2592C172.372 18.4883 174.713 19.3287 177.767 20.4653C181.279 21.8501 185.045 23.2866 185.045 27.6415C185.045 31.5018 181.938 35.0164 175.119 35.0164C172.012 35.0164 168.861 34.4721 166.873 33.6775" fill="white"/>
<path d="M187.3 45.9014L188.371 45.8003C189.797 45.7027 190.358 45.6016 190.358 45.0075V19.6203C190.358 16.5509 190.003 16.1537 188.27 15.6589L187.199 15.4107L197.79 12.0892L197.688 16.3044L197.893 16.4019C199.776 14.0755 202.576 12.0469 205.68 12.0469C210.82 12.0469 214.896 16.6502 214.896 22.7359C214.896 30.6036 208.481 35.0101 202.219 35.0101C200.336 35.0101 198.808 34.714 197.893 34.3168H197.741V45.1069C197.741 45.5041 198.044 45.7525 200.135 45.8003L201.867 45.9014L202.021 46.7418H187.156L187.311 45.9014H187.3ZM206.951 24.7184C206.951 19.6682 204.762 16.1572 201.351 16.1572C199.773 16.1572 198.704 16.7533 197.735 17.4447V29.9654C199.364 32.4408 201.298 33.9747 202.725 33.9747C205.373 33.9747 206.951 30.015 206.951 24.7184Z" fill="white"/>
<path d="M218.066 23.836C218.066 16.8584 223.565 11.6133 230.69 11.6133C236.697 11.6133 239.801 15.3265 239.801 19.0377C239.801 19.5325 239.75 20.0768 239.649 20.5238C239.649 20.5238 227.89 20.3749 225.903 20.2755C225.852 20.7225 225.852 21.5133 225.852 21.9602C225.903 27.1557 228.653 30.7695 233.13 30.7695C235.932 30.7695 238.019 29.4306 239.394 26.9588L240.004 27.255C238.221 32.204 234.66 34.9737 229.058 34.9737C222.853 34.972 218.066 30.3208 218.066 23.836ZM232.983 19.334C233.034 16.0695 232.319 12.851 229.981 12.851C227.997 12.851 226.264 15.1278 225.909 19.3836L232.986 19.334H232.983Z" fill="white"/>
<path d="M243.072 23.9767C243.072 16.9991 248.567 11.7539 255.695 11.7539C261.703 11.7539 264.807 15.4672 264.807 19.1784C264.807 19.6731 264.755 20.2175 264.652 20.6644C264.652 20.6644 252.894 20.5155 250.906 20.4162C250.855 20.8631 250.855 21.6539 250.855 22.1007C250.906 27.2963 253.656 30.9102 258.135 30.9102C260.935 30.9102 263.023 29.5713 264.397 27.0995L265.007 27.3957C263.224 32.3447 259.663 35.1144 254.063 35.1144C247.85 35.1144 243.066 30.4632 243.066 23.9786H243.072V23.9767ZM257.983 19.4745C258.035 16.21 257.322 12.9916 254.982 12.9916C252.998 12.9916 251.265 15.2685 250.91 19.5242L257.983 19.4745Z" fill="white"/>
<path d="M285.393 30.66L285.292 30.5625C283.46 32.9367 280.457 35.0169 277.454 35.0169C272.26 35.0169 268.238 30.316 268.238 24.2268C268.238 16.359 274.652 12.0518 281.22 12.0518C283.053 12.0518 284.376 12.3 285.345 12.644C285.345 12.644 285.396 12.7414 285.396 12.644V7.39878C285.396 4.92332 285.041 4.37894 283.663 4.0332L281.73 3.48881L292.773 0V29.0251C292.773 31.4489 293.081 31.9952 294.557 32.3906L295.983 32.7363L295.88 33.3782L285.396 35.0592V30.6544V30.66H285.393ZM285.393 29.4205V17.1498C283.865 14.7258 281.931 13.1405 280.608 13.1405C277.809 13.1405 276.232 17.0009 276.232 22.3471C276.232 27.6934 278.421 31.059 281.679 31.059C283.207 31.059 284.325 30.316 285.396 29.426" fill="white"/>
<path d="M163.571 30.0134C162.653 30.7067 161.278 31.3486 159.446 31.3486C156.749 31.3486 155.426 30.1108 155.476 26.2009L155.626 15.808H162.803L163.464 12.7386H155.677L155.727 6.91406L148.644 9.15044L148.684 12.7238H147.36L146.765 13.3032L144.18 15.8154H144.687L148.702 15.9589L148.498 27.6372C148.396 32.5366 150.585 34.9128 155.27 34.9128C158.782 34.9128 161.428 33.1307 163.771 30.6553L163.567 30.0134H163.571Z" fill="white"/>
</svg>
